<?xml version="1.0" standalone="no"?><!DOCTYPE svg PUBLIC "-//W3C//DTD SVG 1.1//EN" "http://www.w3.org/Graphics/SVG/1.1/DTD/svg11.dtd"><svg t="1621075842677" class="icon" viewBox="0 0 1024 1024" version="1.1" xmlns="http://www.w3.org/2000/svg" p-id="1350" xmlns:xlink="http://www.w3.org/1999/xlink" width="200" height="200"><defs><style type="text/css"></style></defs><path d="M942.993148 903.985628c0 22.091649-17.907715 39.999364-39.999364 39.999364h-181.997107c-53.071156-2.111966-53.031157-77.904761 0-79.998728h181.997107c22.091649 0 39.999364 17.907715 39.999364 39.999364z m-79.998728-479.992369V79.998728h-541.991383v623.99008h541.991383v-79.998728c2.111966-53.071156 77.904761-53.031157 79.998728 0v119.998092c0 22.091649-17.907715 39.999364-39.999364 39.999364h-301.995199v199.99682a39.999364 39.999364 0 0 1-64.200979 31.845494L461.000811 958.226766l-75.794795 57.605084A39.999364 39.999364 0 0 1 321.003037 983.984356V783.987536h-119.998093c-22.055649 0-39.999364 17.943715-39.999364 39.999364s17.943715 39.999364 39.999364 39.999364c22.091649 0 39.999364 17.907715 39.999364 39.999364s-17.907715 39.999364-39.999364 39.999364c-66.166948 0-119.998092-53.831144-119.998092-119.998092V119.998092c0-66.166948 53.831144-119.998092 119.998092-119.998092h701.98884c22.091649 0 39.999364 17.907715 39.999364 39.999364v383.993895c-2.111966 53.071156-77.904761 53.031157-79.998728 0z m-621.990112-343.994531h-39.999364c-22.055649 0-39.999364 17.943715-39.999364 39.999364v590.844607a119.470101 119.470101 0 0 1 39.999364-6.853891h39.999364z m159.997457 823.34691l35.795431-27.205567a39.997364 39.997364 0 0 1 48.40523 0L520.999857 903.345638V783.987536h-119.998092z m39.999364-663.349454c-53.071156 2.111966-53.031157 77.904761 0 79.998729h301.995199c53.071156-2.111966 53.031157-77.904761 0-79.998729z" p-id="1351"></path></svg>